HIERARCHY
ROOT Hips
{
 OFFSET 0.000000 0.000000 0.000000
 CHANNELS 6 Xposition Yposition Zposition Yrotation Xrotation Zrotation
 JOINT Chest
 {
  OFFSET 0.000000 9.585900 0.002600
  CHANNELS 3 Yrotation Xrotation Zrotation
  JOINT Chest2
  {
   OFFSET 0.000000 9.601200 -0.005300
   CHANNELS 3 Yrotation Xrotation Zrotation
   JOINT Chest3
   {
    OFFSET 0.000000 9.561800 0.000000
    CHANNELS 3 Yrotation Xrotation Zrotation
    JOINT Chest4
    {
     OFFSET 0.000000 9.552100 0.000000
     CHANNELS 3 Yrotation Xrotation Zrotation
     JOINT Neck
     {
      OFFSET 0.000000 14.453000 0.000000
      CHANNELS 3 Yrotation Xrotation Zrotation
      JOINT Head
      {
       OFFSET 0.000000 8.936500 -0.011300
       CHANNELS 3 Yrotation Xrotation Zrotation
       End Site
       {
        OFFSET 0.000000 17.073600 -0.006000
       }
      }
     }
     JOINT RightCollar
     {
      OFFSET -2.921100 9.558500 0.000000
      CHANNELS 3 Yrotation Xrotation Zrotation
      JOINT RightShoulder
      {
       OFFSET -13.519700 0.000000 0.000000
       CHANNELS 3 Yrotation Xrotation Zrotation
       JOINT RightElbow
       {
        OFFSET 0.000000 -29.696600 0.000000
        CHANNELS 3 Yrotation Xrotation Zrotation
        JOINT RightWrist
        {
         OFFSET 0.000000 -24.004700 0.000000
         CHANNELS 3 Yrotation Xrotation Zrotation
         End Site
         {
          OFFSET 0.000000 -17.728500 0.000000
         }
        }
       }
      }
     }
     JOINT LeftCollar
     {
      OFFSET 2.921100 9.558500 0.000000
      CHANNELS 3 Yrotation Xrotation Zrotation
      JOINT LeftShoulder
      {
       OFFSET 13.519700 0.000000 0.000000
       CHANNELS 3 Yrotation Xrotation Zrotation
       JOINT LeftElbow
       {
        OFFSET 0.000000 -29.696600 0.000000
        CHANNELS 3 Yrotation Xrotation Zrotation
        JOINT LeftWrist
        {
         OFFSET 0.000000 -24.004700 0.000000
         CHANNELS 3 Yrotation Xrotation Zrotation
         End Site
         {
          OFFSET 0.000000 -17.728500 0.000000
         }
        }
       }
      }
     }
    }
   }
  }
 }
 JOINT RightHip
 {
  OFFSET -7.771700 -0.012900 -0.001300
  CHANNELS 3 Yrotation Xrotation Zrotation
  JOINT RightKnee
  {
   OFFSET 0.000000 -40.869800 0.001200
   CHANNELS 3 Yrotation Xrotation Zrotation
   JOINT RightAnkle
   {
    OFFSET 0.000000 -39.717900 0.002100
    CHANNELS 3 Yrotation Xrotation Zrotation
    JOINT RightToe
    {
     OFFSET 0.000000 -4.965400 11.033500
     CHANNELS 3 Yrotation Xrotation Zrotation
     End Site
     {
      OFFSET 0.000000 -1.423100 5.872300
     }
    }
   }
  }
 }
 JOINT LeftHip
 {
  OFFSET 7.771700 -0.012900 -0.001300
  CHANNELS 3 Yrotation Xrotation Zrotation
  JOINT LeftKnee
  {
   OFFSET 0.000000 -40.869800 0.001200
   CHANNELS 3 Yrotation Xrotation Zrotation
   JOINT LeftAnkle
   {
    OFFSET 0.000000 -39.717900 0.002100
    CHANNELS 3 Yrotation Xrotation Zrotation
    JOINT LeftToe
    {
     OFFSET 0.000000 -4.965400 11.033500
     CHANNELS 3 Yrotation Xrotation Zrotation
     End Site
     {
      OFFSET 0.000000 -1.423100 5.872300
     }
    }
   }
  }
 }
}
MOTION
Frames: 7
Frame Time: 0.008333
28.198493 48.694868 63.921110 172.906855 -36.914861 -7.274724 7.147564 21.107405 4.695391 0.880516 3.003510 0.550873 1.468296 4.837535 0.913207 5.990487 17.796394 4.122190 -2.464638 17.273178 1.861664 -5.179482 -3.589386 4.269625 -2.219225 -2.428903 -4.067579 2.309411 -6.862902 1.460078 3.635424 -82.123073 -15.371436 12.153674 10.219749 27.283050 -10.275660 0.589575 0.689847 7.415656 -5.324102 -1.397479 -103.833023 -76.486771 114.208375 11.211270 0.960216 -20.244621 4.603330 -47.054946 8.563808 -106.028707 79.101348 -93.758522 -2.695201 -9.435741 -2.944752 0.210550 -1.334501 -0.071570 -8.128147 -48.044780 15.161083 -156.151043 79.971567 -162.803547 2.667217 -18.300210 7.439838 0.121112 -0.085059 0.048526
28.181874 48.685806 63.934013 172.797925 -36.901648 -7.222697 7.168596 21.177535 4.696307 0.924340 2.957502 0.542604 1.452350 4.910447 0.930576 6.002892 17.838128 4.135412 -2.468229 17.316714 1.852831 -5.180867 -3.508962 4.252231 -2.210458 -2.492466 -4.123431 2.266827 -6.827186 1.382553 4.213758 -82.444500 -15.851857 12.421435 10.005657 28.375200 -10.247243 0.481017 0.680042 7.434893 -5.285992 -1.262815 -104.809279 -76.722548 115.024785 11.400606 0.879558 -20.108524 4.606169 -46.876275 8.524102 -106.736089 79.272943 -94.435942 -2.520902 -9.303447 -2.696812 0.159747 -1.500540 -0.311346 -8.065380 -48.067151 15.166143 -156.083224 79.974184 -162.730842 2.668988 -18.290002 7.428149 0.142676 -0.065649 0.059323
28.171007 48.678453 63.947484 172.701691 -36.889269 -7.192805 7.204029 21.229322 4.719692 0.950853 2.930665 0.535022 1.436316 4.986060 0.950318 6.008470 17.885837 4.148006 -2.467263 17.349723 1.843105 -5.174151 -3.448473 4.232181 -2.201476 -2.561209 -4.166152 2.215292 -6.795388 1.265440 4.700494 -82.781263 -16.200072 12.598337 9.690645 29.364377 -10.233429 0.439605 0.689441 7.493605 -5.322519 -1.160866 -105.805481 -76.929294 115.867275 11.560471 0.836937 -20.049082 4.653794 -46.683906 8.435272 -107.260951 79.490427 -94.895557 -2.289850 -9.119327 -2.360876 0.113960 -1.640523 -0.585146 -8.034247 -48.085043 15.194393 -156.107804 79.981523 -162.747058 2.670046 -18.286391 7.408618 0.153560 -0.044764 0.067033
28.170937 48.672969 63.963793 172.608192 -36.870796 -7.204863 7.276650 21.230908 4.787489 0.892869 3.055921 0.563970 1.475339 4.948489 0.937243 6.010826 17.938088 4.159198 -2.462495 17.374897 1.832678 -5.160624 -3.402620 4.209974 -2.191901 -2.629538 -4.197548 2.156017 -6.764325 1.116895 4.887589 -83.137759 -16.213568 12.688325 9.307653 30.247105 -10.234959 0.390903 0.687736 7.581185 -5.357096 -1.052523 -106.776504 -77.088944 116.700901 11.686107 0.814091 -20.066102 4.726045 -46.488604 8.351398 -107.566182 79.743801 -95.103913 -2.035100 -8.916974 -1.941246 0.056374 -1.722461 -0.876470 -8.046661 -48.104563 15.288582 -156.165431 79.989514 -162.794354 2.695523 -18.293326 7.397253 0.132319 -0.021873 0.058000
28.178615 48.672100 63.978495 172.535643 -36.873701 -7.243392 7.299069 21.306575 4.874778 0.897312 3.082704 0.568387 1.492486 4.959330 0.936456 6.013548 17.991209 4.168774 -2.455381 17.394556 1.820469 -5.142455 -3.367162 4.183975 -2.181135 -2.696155 -4.221189 2.093192 -6.732829 0.948696 4.627924 -83.510073 -15.758810 12.699778 8.884768 31.027085 -10.243164 0.311349 0.670567 7.681741 -5.359688 -0.932259 -107.684659 -77.192648 117.493949 11.776173 0.798194 -20.153476 4.840053 -46.262107 8.252023 -107.632549 80.025356 -95.042299 -1.827664 -8.677739 -1.465458 0.015835 -1.770504 -1.146596 -8.078190 -48.097955 15.404693 -156.190697 79.994514 -162.810974 2.732196 -18.299728 7.392660 0.097307 -0.006828 0.044627
28.196599 48.675073 63.993614 172.484122 -36.887690 -7.322335 7.311769 21.393563 4.995557 0.915234 3.086415 0.565809 1.498275 4.990504 0.941567 6.017731 18.041267 4.177220 -2.446276 17.410780 1.805055 -5.119742 -3.338481 4.151559 -2.168196 -2.760329 -4.239796 2.025746 -6.699554 0.773704 3.839130 -83.890741 -14.765863 12.653520 8.445148 31.723761 -10.258313 0.230917 0.649996 7.795667 -5.355191 -0.817266 -108.485093 -77.238077 118.200198 11.830344 0.780377 -20.292335 4.965267 -46.015696 8.170579 -107.431478 80.336337 -94.692702 -1.639732 -8.407420 -0.981749 0.004470 -1.780560 -1.362881 -8.155880 -48.075746 15.563594 -156.229047 79.999484 -162.827077 2.758948 -18.303579 7.376670 0.074326 0.004721 0.032051
28.223885 48.679966 64.011206 172.447856 -36.896931 -7.432888 7.330775 21.457638 5.139957 0.949588 3.061582 0.553247 1.474676 5.063479 0.964563 6.022642 18.088405 4.184639 -2.435212 17.423217 1.785909 -5.092360 -3.317219 4.111894 -2.152346 -2.821957 -4.256262 1.954605 -6.665898 0.604545 2.504157 -84.269469 -13.224820 12.569815 8.012086 32.358578 -10.260766 0.129248 0.621246 7.897691 -5.326777 -0.700181 -109.129270 -77.231260 118.774487 11.843991 0.758724 -20.473894 5.084848 -45.767268 8.117865 -106.938124 80.671204 -94.048701 -1.442350 -8.113656 -0.533431 0.018169 -1.751799 -1.502346 -8.276442 -48.058382 15.758973 -156.341607 80.010863 -162.897802 2.767304 -18.292162 7.342202 0.064916 0.008869 0.021997
